<?xml version="1.0" encoding="UTF-8" standalone="no"?>
<!-- Created with Inkscape (http://www.inkscape.org/) -->
<svg
   xmlns:dc="http://purl.org/dc/elements/1.1/"
   xmlns:cc="http://creativecommons.org/ns#"
   xmlns:rdf="http://www.w3.org/1999/02/22-rdf-syntax-ns#"
   xmlns:svg="http://www.w3.org/2000/svg"
   xmlns="http://www.w3.org/2000/svg"
   xmlns:sodipodi="http://sodipodi.sourceforge.net/DTD/sodipodi-0.dtd"
   xmlns:inkscape="http://www.inkscape.org/namespaces/inkscape"
   id="svg2457"
   sodipodi:version="0.32"
   inkscape:version="0.46"
   width="2934"
   height="945"
   version="1.0"
   sodipodi:docname="np-lia_v_claire.svg"
   inkscape:output_extension="org.inkscape.output.svg.inkscape">
  <metadata
     id="metadata2462">
    <rdf:RDF>
      <cc:Work
         rdf:about="">
        <dc:format>image/svg+xml</dc:format>
        <dc:type
           rdf:resource="http://purl.org/dc/dcmitype/StillImage" />
      </cc:Work>
    </rdf:RDF>
  </metadata>
  <defs
     id="defs2460">
    <inkscape:perspective
       sodipodi:type="inkscape:persp3d"
       inkscape:vp_x="0 : 526.18109 : 1"
       inkscape:vp_y="0 : 1000 : 0"
       inkscape:vp_z="744.09448 : 526.18109 : 1"
       inkscape:persp3d-origin="372.04724 : 350.78739 : 1"
       id="perspective2464" />
  </defs>
  <sodipodi:namedview
     inkscape:window-height="829"
     inkscape:window-width="1440"
     inkscape:pageshadow="2"
     inkscape:pageopacity="0.0"
     guidetolerance="10.0"
     gridtolerance="10.0"
     objecttolerance="10.0"
     borderopacity="1.0"
     bordercolor="#666666"
     pagecolor="#ffffff"
     id="base"
     showgrid="false"
     inkscape:zoom="0.22818677"
     inkscape:cx="1850.7126"
     inkscape:cy="961.43065"
     inkscape:window-x="0"
     inkscape:window-y="25"
     inkscape:current-layer="g2554" />
  <g
     id="g2554"
     transform="translate(1.2674422,5.1111845)">
    <path
       style="fill:#fefefe"
       d="M 0,472.5 L 0,0 L 1467,0 L 2934,0 L 2934,472.5 L 2934,945 L 1467,945 L 0,945 L 0,472.5 z"
       id="path2560" />
    <path
       style="fill:#005aa3"
       d="M 1769.5,850.05742 C 1729.7381,845.41963 1695.7921,828.05089 1663.9953,796.07513 C 1630.9138,762.80744 1608.3846,720.48387 1595.8597,668.07488 C 1592.6079,654.4681 1588.0067,626.73588 1588.0026,620.71862 C 1588.001,618.44034 1587.4551,616.72814 1586.6293,616.41123 C 1585.8754,616.12193 1574.1772,622.65926 1560.6333,630.93863 C 1500.5994,667.63742 1470.8136,682.62887 1442.9514,690.16899 C 1430.8491,693.44412 1411.3409,693.48306 1402,690.25073 C 1383.0809,683.70396 1367.2407,662.34957 1361.7654,636.01003 C 1360.1439,628.20948 1359.8847,624.0733 1360.3231,613 C 1361.1883,591.15092 1367.5215,569.84496 1381.428,542 C 1393.958,516.91131 1407.1527,496.42778 1441.3351,449 C 1468.6669,411.07732 1480.2154,394.19157 1487.1577,382 C 1491.8713,373.72225 1494.0452,369.24679 1500.5157,354.5 C 1503.8845,346.82218 1513.123,317.21047 1514.9563,308.21435 C 1516.5586,300.35177 1517,294.37354 1517,280.53447 C 1517,248.49396 1513.6664,237.89399 1497.4912,218.50139 C 1488.3068,207.4901 1480.1008,200.73497 1469.5,195.45925 C 1454.8786,188.18259 1447.7821,184.3778 1426.6369,184.35299 C 1411.3931,184.3351 1407.3296,186.98185 1400.8565,188.76186 C 1392.6902,191.00746 1383.3095,195.36557 1376,200.3097 C 1369.8399,204.47641 1335,231.17677 1335,231.73101 C 1335,231.97658 1337.9623,235.40007 1341.583,239.33875 C 1366.8585,266.83469 1383.1829,298.12298 1389.6671,331.5 C 1392.162,344.34233 1392.1429,371.06354 1389.6292,384.5 C 1384.6169,411.29253 1371.9806,436.32327 1353.738,455.59533 C 1336.5574,473.74541 1320.1277,482.91989 1295.5,488.1159 C 1283.3916,490.67055 1259.489,491.67172 1249.3232,490.05002 C 1225.7874,486.29549 1197.1308,472.16623 1198.1701,464.82885 C 1198.7082,461.03031 1202.3651,461.38695 1209.9656,465.97919 C 1235.1981,481.22493 1260.1665,483.1051 1284.5,471.59179 C 1326.9305,451.51596 1356.6255,389.43267 1353.6595,327 C 1352.2722,297.79726 1344.8245,274.45004 1329.1808,250.26292 C 1326.6064,246.28252 1323.7852,243.02002 1322.9116,243.01292 C 1318.655,242.9783 1287.4209,278.82018 1272.3793,301 C 1241.2951,346.83564 1216.3211,396.95273 1178.6964,489 C 1138.6153,587.05696 1114.4733,631.36305 1081.2074,667.91493 C 1054.4181,697.35042 1008.6166,730.12488 965.96732,750.37798 C 939.58004,762.90867 910.02534,772.82673 886,777.21368 C 871.82251,779.80245 841.85714,780.29427 830,778.13281 C 794.44992,771.65234 763.85439,750.68924 750.21227,723.46476 C 738.68753,700.46576 738.81787,670.02582 750.5247,650.5 C 758.41385,637.34168 767.6904,630.98424 778.94634,631.02196 C 792.84427,631.06854 798.72453,636.95585 801.01687,653.11898 C 803.47038,670.41842 796.06362,688.88749 784.58098,694.1026 C 778.87219,696.69538 770.78902,696.57142 765.88624,693.81591 C 760.13178,690.58172 757.67509,684.78649 757.16801,673.25 C 756.81393,665.19415 756.53127,664 754.97855,664 C 752.23209,664 750.81534,669.28557 750.26007,681.60361 C 749.1637,705.925 756.74083,724.9389 774.18495,741.64023 C 795.37687,761.92978 826.67925,772.35089 861.5,770.70896 C 902.37159,768.7817 935.17391,752.39339 973.86911,714.56844 C 1003.0959,685.99892 1025.3516,657.81714 1046.1823,623 C 1064.6293,592.16715 1111.3163,508.46107 1152.9913,431.5 C 1198.3357,347.76269 1220.0144,316.64069 1260.6178,276.99083 C 1269.353,268.46079 1284.2347,255.03752 1293.6881,247.16135 C 1304.5922,238.07662 1310.6854,232.34375 1310.3543,231.48087 C 1309.435,229.08535 1294.8305,217.04733 1284.1508,209.88219 C 1256.3422,191.22516 1223.7268,181.39687 1178.5,178.04554 C 1158.0732,176.5319 1148.519,176.66974 1147,178.5 C 1146.0739,179.61591 1143.5459,180.00839 1137.1276,180.03277 C 1121.6864,180.09143 1098.6815,181.80747 1090.5291,183.50875 C 1080.0429,185.69708 1066.9018,189.85089 1064.9213,191.60318 C 1064.053,192.37143 1062.3585,193 1061.1559,193 C 1057.5726,193 1035.9937,204.36733 1023.1541,213.01861 C 971.67882,247.70255 917.66605,312.7644 871.24744,396 C 849.3854,435.20194 821.94448,488.07608 782.50086,567 C 752.2824,627.46505 741.5424,648.10274 729.16351,669.49162 C 725.02276,676.64623 719.80452,685.7287 717.56743,689.67488 C 712.35692,698.86613 693.39372,726.98838 684.14801,739.23558 C 675.52706,750.65518 666.19284,760.26327 662.05431,761.97751 C 655.7199,764.6013 651.76306,758.18253 655.41072,751.20034 C 657.28675,747.60934 660.92216,744.38327 670.26323,738.02018 C 682.36069,729.77946 688.08753,720.31031 692.01328,702.05716 C 696.34194,681.93063 697.111,648.25487 694.5267,592 C 686.03964,407.25478 693.69788,326.36731 726.55144,253.75 C 729.47521,247.2875 731.55972,242.00671 731.18369,242.01492 C 730.28383,242.03456 717.61517,260.35073 711.48156,270.5 C 702.71053,285.01339 672.1772,348.74415 618.8504,463.84457 C 587.67506,531.13334 573.65438,558.68263 556.17284,587 C 521.34689,643.41259 480.57691,690.05444 441.5,718.18856 C 399.82278,748.1948 352.42298,764.6769 302,766.69619 C 262.33955,768.28447 231.0378,757.69747 208.24542,734.98613 C 192.44815,719.24503 183.89395,698.11318 184.03489,675.17764 C 184.16818,653.48528 195.05395,631.99321 209.43368,625.03211 C 219.84041,619.9943 232.49408,621.44145 239.52632,628.47368 C 244.68347,633.63084 246.51141,639.65408 246.3626,651 C 246.12393,669.19817 235.8319,683.68597 222.34839,684.80413 C 215.45895,685.37546 212.76859,684.61372 208.52913,680.89143 C 204.37992,677.24838 202,670.3658 202,662.00963 C 202,658.67142 201.41328,655.59263 200.55767,654.44113 C 199.13207,652.52251 199.09207,652.52319 197.10813,654.5 C 191.28013,660.30707 192.05316,689.32651 198.45558,705.08295 C 205.96168,723.55559 223.43508,740.26983 244.80099,749.41482 C 275.92046,762.73451 319.67398,761.92629 359,747.30534 C 378.97384,739.8793 403.49986,725.63731 421.67555,710.91032 C 432.82324,701.87783 453.5769,681.44417 465.25787,668 C 506.60986,620.40608 557.03242,539.14989 607.67135,438.5 C 616.80297,420.35 631.18758,392.15991 639.63715,375.85535 C 648.08672,359.5508 655,345.42891 655,344.47339 C 655,343.51786 660.09689,341.7438 661.13756,340.02888 C 662.17823,338.31397 664.31925,333.55551 664.72371,331.63051 C 665.59655,329.51989 668.97514,326.94794 670.72462,317.28651 C 672.37022,314.10393 675.36707,309.025 677.3843,306 C 679.40154,302.975 683.29698,296.13796 686.04084,290.80658 C 688.78471,285.4752 691.75493,280.38793 692.64132,279.50154 C 693.52772,278.61514 699.08102,270.60218 704.98199,261.69495 C 718.24088,241.6813 727.27548,229.67294 739.24861,216.14936 C 749.30205,204.79407 765.55708,189.70128 773.48665,184.35936 C 781.41768,179.01646 785.6757,180.40235 781.12551,186.84563 C 777.62985,191.79564 771.89048,204.15476 769.05158,212.84557 C 765.31784,224.27574 762.61817,237.95461 759.01745,263.68708 C 753.78578,301.07517 751.76589,332.75237 750.00668,405 C 746.83931,535.07805 744.53492,569.19974 735.39246,621.39592 C 734.05378,629.03868 733.12872,635.46205 733.33675,635.67009 C 734.17486,636.50819 736.40613,631.90135 754.00353,593 C 823.48079,439.4114 857.82037,372.30979 897.29488,313 C 950.024,233.7754 997.52146,192.86787 1058.5332,174.13231 C 1087.2717,165.30726 1118.6085,162.90517 1145.5,167.46598 C 1150.45,168.30551 1158.9003,168.9941 1164.2784,168.99619 C 1169.6566,168.99829 1180.6614,169.69357 1188.7336,170.54127 C 1237.7229,175.68588 1276.2732,189.77853 1313.6811,216.21776 C 1318.1807,219.39799 1322.4742,222 1323.2222,222 C 1323.9703,222 1329.5138,218.3309 1335.5411,213.84645 C 1372.0449,186.68711 1388.8012,179.54934 1419,178.29499 C 1441.9536,177.34158 1456.1731,180.02794 1474,188.6857 C 1484.7758,193.91903 1486.1966,194.97072 1496.5608,205.38538 C 1507.8541,216.73372 1516.808,229.00467 1520.8124,238.62132 C 1524.3266,247.06089 1526.0325,259.92044 1526.1045,278.51438 C 1526.1811,298.29544 1525.5902,302.16245 1518.8703,325.86289 C 1507.2781,366.74688 1498.6102,383.80211 1462.3879,437 C 1442.6947,465.92236 1438.8586,471.81882 1428.2325,489.5 C 1392.8827,548.32005 1384.5998,592.42779 1402.0497,628.92838 C 1406.9259,639.12824 1413.1492,648.03931 1419.4569,653.85354 C 1439.6303,672.44873 1473.6168,667.73792 1529.5,638.60066 C 1544.3962,630.83382 1568.7457,616.77344 1579.4635,609.74967 L 1585.9482,605.5 L 1586.3754,572.5 C 1586.9928,524.80499 1591.113,493.63567 1603.1576,445.54465 C 1620.8719,374.81525 1652.8854,302.28429 1697.1072,232.68868 C 1735.1598,172.80216 1772.115,132.73566 1800.481,120.61172 C 1806.2703,118.13733 1808.9016,117.6038 1815.5,117.56643 C 1824.6996,117.51431 1829.3496,119.4066 1835.5892,125.74161 C 1841.0296,131.26523 1848.7775,143.51173 1850.4988,149.30801 C 1857.1648,171.7549 1844.6843,198.05588 1797.105,261.82827 C 1774.3311,292.35299 1764.0151,306.7836 1754.805,321 C 1711.8038,387.37544 1686.5707,448.75975 1676.4607,511.58764 C 1674.3728,524.56251 1671.9455,548.10275 1672.5882,549.14272 C 1672.8762,549.60869 1675.6742,548.34289 1678.8059,546.32985 C 1725.2025,516.50674 1764.632,492.44418 1794,476.03057 C 1818.2782,462.4616 1867.8023,438.29444 1889,429.67167 C 1946.394,406.32504 1996.3936,394.97713 2041.7216,395.00999 C 2053.7938,395.01874 2069.7738,396.32968 2085.25,398.5809 C 2090.8623,399.39728 2090.8868,399.31707 2087.8685,390 C 2084.5987,379.90643 2084.1294,360.22454 2086.8837,348.69865 C 2092.8523,323.7216 2108.2145,305.34087 2127.9315,299.58546 C 2135.5734,297.35479 2148.2819,297.53441 2156.2168,299.98524 C 2194.0918,311.68365 2211.2127,368.39786 2187.3931,403.25906 C 2182.5543,410.34095 2177.4772,415.24416 2170.2518,419.81347 C 2167.9153,421.29106 2166.0028,422.8624 2166.0018,423.30532 C 2165.9999,424.14116 2167.0107,424.61883 2191,435.1186 C 2208.5666,442.80728 2247.773,462.53824 2277,478.3989 C 2288.825,484.81599 2299.216,489.9389 2300.0912,489.78316 C 2300.9664,489.62742 2313.0956,476.225 2327.045,460 C 2380.6527,397.64743 2406.135,368.62867 2439.4463,332 C 2543.0872,218.03742 2595.4317,175.52618 2647.275,163.21316 C 2657.6977,160.73773 2660.1082,160.54688 2681,160.54301 C 2701.0683,160.5393 2704.4683,160.78327 2712.4596,162.80044 C 2749.8852,172.24751 2767.2018,200.99261 2775.8338,268 C 2776.8757,276.08778 2778.0135,281.5 2778.6718,281.5 C 2779.2762,281.5 2791.1565,268.45 2805.0725,252.5 C 2860.8031,188.62365 2888.4036,161 2896.4958,161 C 2903.3148,161 2902.301,169.89869 2893.009,191.60501 C 2878.1299,226.36294 2837.3059,294.03538 2788.7087,364.5 L 2783.1913,372.5 L 2784.1368,401 C 2785.5169,442.5998 2785.5125,548.94952 2784.1298,571.5 C 2780.3174,633.67353 2772.9612,662.07803 2758.473,670.5687 C 2754.3442,672.98833 2753.1717,673.2079 2746.6939,672.77446 C 2729.8035,671.64432 2723.4545,664.09179 2719.5625,640.5 C 2716.5848,622.45071 2714.5403,582.77082 2713.5083,523 C 2712.85,484.87934 2712.1219,469.78493 2710.9613,470.19988 C 2710.4996,470.36495 2703.505,478.6 2695.4179,488.5 C 2660.0054,531.85085 2629.759,565.33608 2597.3954,597.01898 C 2542.5097,650.7502 2496.7453,680.29183 2463.3971,683.51692 C 2455.0583,684.32337 2436.0545,682.65394 2422.7488,679.9461 C 2392.7294,673.83687 2359.1616,657.57068 2324.9245,632.54264 C 2322.9323,631.08631 2320.7182,630.21011 2319.9245,630.56399 C 2319.141,630.91331 2309.275,641.57688 2298,654.26082 C 2272.0005,683.50921 2216.6385,739.22912 2199,753.90087 C 2183.3874,766.88741 2162.4412,781.27875 2151.8518,786.29452 C 2124.5457,799.22835 2104.2647,797.45099 2083,780.26054 C 2075.2266,773.9765 2072.1297,770.62781 2057.192,752.35434 C 2043.9945,736.20956 2036.237,730.08409 2028.9097,730.02196 C 2024.5184,729.98473 2014.9141,735.56519 2005.722,743.49493 C 1933.433,805.85615 1873.6171,838.95474 1815.9861,848.48365 C 1804.719,850.34658 1779.3442,851.20564 1769.5,850.05742 z M 1803.7218,736.96843 C 1826.6282,731.62607 1856.903,715.77812 1885.3351,694.24621 C 1926.3827,663.16053 1963.9033,623.09737 1999.63,572.20633 C 2025.9241,534.75144 2046.1951,512.0172 2063.7933,500.24593 C 2074.4177,493.13936 2081.3059,490.55967 2089.5,490.61854 C 2096.9042,490.67173 2100.3696,492.39276 2106.2563,498.94019 C 2111.6806,504.97326 2115.1426,513.18785 2118.1559,527.17509 C 2120.1644,536.49798 2120.3814,540.31443 2120.3925,566.5 C 2120.3992,582.45 2120.2012,604.5 2119.9524,615.5 C 2119.5565,633.00242 2119.7266,636.14979 2121.3149,640.70337 C 2123.8879,648.0805 2128.5798,652 2134.8377,652 C 2144.9588,652 2161.495,641.5018 2183.1327,621.33951 C 2201.3025,604.40861 2238,565.42462 2238,563.05366 C 2238,560.56594 2196.1395,529.91936 2175.268,517.12676 C 2117.054,481.44616 2057.0243,466.74538 1975.784,468.27478 C 1940.0553,468.94739 1914.3964,471.98501 1880,479.61411 C 1820.0223,492.91715 1748.718,521.38704 1682,558.67019 L 1671.5,564.53778 L 1671.7474,579.51889 C 1673.0043,655.63254 1706.2645,714.02163 1760.3402,735.0462 C 1774.0093,740.36071 1786.7552,740.92548 1803.7218,736.96843 z M 2492.5,553.97093 C 2534.0565,539.76271 2597.395,485.44054 2686.0466,387.97605 C 2696.0229,377.008 2705.0046,366.99258 2706.006,365.71956 C 2707.7255,363.53356 2707.7478,362.68544 2706.409,350.45249 C 2702.35,313.36745 2695.8367,292.73322 2684.9856,282.58333 C 2673.8921,272.2066 2658.6361,274.35127 2636.0061,289.46884 C 2600.9795,312.8678 2551.1033,364.16952 2445.9838,484.92245 C 2401.908,535.55324 2398.8332,539.23324 2399.799,540.199 C 2402.6894,543.08939 2436.0103,553.05157 2451,555.50692 C 2464.2355,557.67494 2483.7824,556.95147 2492.5,553.97093 z"
       id="path2558"
       sodipodi:nodetypes="cssssssssssssssssssssssssssssssssssssssssssssssssssssssssssssssssssssssssssssssssssssssssssssssssssssccsssssssssssssssssssssssssssssssscccsssssssssssssssssssssssssscsssssssscccssssssssssssssssssssccssssssssssssssscccsccssssssssc" />
    <path
       style="fill:#891b1e"
       d="M 840,779.42738 C 838.625,779.18885 834.125,778.49693 830,777.88977 C 820.30264,776.46241 804.45874,771.25992 794.42414,766.20811 C 775.31896,756.5898 758.81645,740.63543 750.21227,723.46476 C 738.68753,700.46576 738.81787,670.02582 750.5247,650.5 C 758.41385,637.34168 767.6904,630.98424 778.94634,631.02196 C 792.84427,631.06854 798.72453,636.95585 801.01687,653.11898 C 803.47038,670.41842 796.06362,688.88749 784.58098,694.1026 C 778.87219,696.69538 770.78902,696.57142 765.88624,693.81591 C 760.13178,690.58172 757.67509,684.78649 757.16801,673.25 C 756.81393,665.19415 756.53127,664 754.97855,664 C 752.23209,664 750.81534,669.28557 750.26007,681.60361 C 749.1637,705.925 756.74083,724.9389 774.18495,741.64023 C 795.37687,761.92978 826.67925,772.35089 861.5,770.70896 C 902.37159,768.7817 935.17391,752.39339 973.86911,714.56844 C 1003.0959,685.99892 1025.3516,657.81714 1046.1823,623 C 1064.6293,592.16715 1111.3163,508.46107 1152.9913,431.5 C 1198.3357,347.76269 1220.0144,316.64069 1260.6178,276.99083 C 1269.353,268.46079 1284.2347,255.03752 1293.6881,247.16135 C 1304.5922,238.07662 1310.6854,232.34375 1310.3543,231.48087 C 1309.435,229.08535 1294.8305,217.04732 1284.1508,209.88219 C 1269.3774,199.9706 1249.8462,192.24155 1229.8077,186.83519 C 1212.1267,182.0649 1195.1465,181.2941 1179.5956,180.23673 C 1165.0881,179.33486 1150.6254,179.78823 1137.1276,180.03277 C 1121.6864,180.09143 1098.6815,181.80747 1090.5291,183.50875 C 1080.0429,185.69708 1066.9018,189.85089 1064.9213,191.60318 C 1064.053,192.37143 1062.3585,193 1061.1559,193 C 1057.5726,193 1035.9937,204.36733 1023.1541,213.01861 C 971.67882,247.70255 917.66605,312.7644 871.24744,396 C 849.3854,435.20194 821.94448,488.07608 782.50086,567 C 752.2824,627.46505 741.5424,648.10274 729.16351,669.49162 C 725.02276,676.64623 719.80452,685.7287 717.56743,689.67488 C 712.35692,698.86613 693.39372,726.98838 684.14801,739.23558 C 675.52706,750.65518 666.19284,760.26327 662.05431,761.97751 C 655.7199,764.6013 651.76306,758.18253 655.41072,751.20034 C 657.28675,747.60934 660.92216,744.38327 670.26323,738.02018 C 682.36069,729.77946 688.08753,720.31031 692.01328,702.05716 C 696.34194,681.93063 697.111,648.25487 694.5267,592 C 686.03964,407.25478 693.69788,326.36731 726.55144,253.75 C 729.47521,247.2875 731.55972,242.00671 731.18369,242.01492 C 730.28383,242.03456 717.61517,260.35073 711.48156,270.5 C 702.71053,285.01339 672.1772,348.74415 618.8504,463.84457 C 587.67506,531.13334 573.65438,558.68263 556.17284,587 C 521.34689,643.41259 480.57691,690.05444 441.5,718.18856 C 399.82278,748.1948 352.42298,764.6769 302,766.69619 C 262.33955,768.28447 231.0378,757.69747 208.24542,734.98613 C 192.44815,719.24503 183.89395,698.11318 184.03489,675.17764 C 184.16818,653.48528 195.05395,631.99321 209.43368,625.03211 C 219.84041,619.9943 232.49408,621.44145 239.52632,628.47368 C 244.68347,633.63084 246.51141,639.65408 246.3626,651 C 246.12393,669.19817 235.8319,683.68597 222.34839,684.80413 C 215.45895,685.37546 212.76859,684.61372 208.52913,680.89143 C 204.37992,677.24838 202,670.3658 202,662.00963 C 202,658.67142 201.41328,655.59263 200.55767,654.44113 C 199.13207,652.52251 199.09207,652.52319 197.10813,654.5 C 191.28013,660.30707 192.05316,689.32651 198.45558,705.08295 C 205.96168,723.55559 223.43508,740.26983 244.80099,749.41482 C 275.92046,762.73451 319.67398,761.92629 359,747.30534 C 378.97384,739.8793 403.49986,725.63731 421.67555,710.91032 C 432.82324,701.87783 453.5769,681.44417 465.25787,668 C 506.60986,620.40608 557.03242,539.14989 607.67135,438.5 C 616.80297,420.35 631.18758,392.15991 639.63715,375.85535 C 648.08672,359.5508 655,345.42891 655,344.47339 C 661.99826,331.77686 665.45795,326.26642 670.72462,317.28651 C 672.37022,314.10393 675.36707,309.025 677.3843,306 C 679.40154,302.975 683.29698,296.13796 686.04084,290.80658 C 688.78471,285.4752 691.75493,280.38793 692.64132,279.50154 C 693.52772,278.61514 699.08102,270.60218 704.98199,261.69495 C 718.24088,241.6813 727.27548,229.67294 739.24861,216.14936 C 749.30205,204.79407 765.55708,189.70128 773.48665,184.35936 C 781.41768,179.01646 785.6757,180.40235 781.12551,186.84563 C 777.62985,191.79564 771.89048,204.15476 769.05158,212.84557 C 765.31784,224.27574 762.61817,237.95461 759.01745,263.68708 C 753.78578,301.07517 751.76589,332.75237 750.00668,405 C 746.83931,535.07805 744.53492,569.19974 735.39246,621.39592 C 734.05378,629.03868 733.12872,635.46205 733.33675,635.67009 C 734.17486,636.50819 736.40613,631.90135 754.00353,593 C 823.48079,439.4114 857.82037,372.30979 897.29488,313 C 950.024,233.7754 997.52146,192.86787 1058.5332,174.13231 C 1087.2717,165.30726 1120.8232,164.08098 1149.4481,166.14348 C 1172.0128,166.36241 1189.2416,169.35961 1201.3329,171.36297 C 1235.8056,177.19232 1276.2732,189.77853 1313.6811,216.21776 C 1318.1807,219.39799 1322.4742,222 1323.2222,222 C 1323.9703,222 1329.5138,218.3309 1335.5411,213.84645 C 1372.0449,186.68711 1388.8012,179.54934 1419,178.29499 C 1441.9536,177.34158 1456.1731,180.02794 1474,188.6857 C 1484.7758,193.91903 1486.1966,194.97072 1496.5608,205.38538 C 1507.8541,216.73372 1516.808,229.00467 1520.8124,238.62132 C 1524.3266,247.06089 1526.0325,259.92044 1526.1045,278.51438 C 1526.1811,298.29544 1525.5902,302.16245 1518.8703,325.86289 C 1507.2781,366.74688 1498.6102,383.80211 1462.3879,437 C 1442.6947,465.92236 1438.8586,471.81882 1428.2325,489.5 C 1392.8827,548.32005 1384.5998,592.42779 1402.0497,628.92838 C 1416.6978,659.56853 1435.0407,669.24305 1466.81,663.08459 C 1492.6616,658.07326 1531.0855,640.07708 1576.4555,611.73111 C 1581.381,608.65377 1585.7685,606.35692 1586.2055,606.627 C 1586.6425,606.89707 1587,608.85439 1587,610.9766 L 1587,614.83517 L 1561.4092,630.46812 C 1500.3119,667.79141 1470.9386,682.59504 1442.9514,690.16899 C 1430.8491,693.44412 1411.3409,693.48306 1402,690.25073 C 1383.0809,683.70396 1367.2407,662.34957 1361.7654,636.01003 C 1360.1439,628.20948 1359.8847,624.0733 1360.3231,613 C 1361.1883,591.15092 1367.5215,569.84496 1381.428,542 C 1393.958,516.91131 1407.1527,496.42778 1441.3351,449 C 1468.6669,411.07732 1480.2154,394.19157 1487.1577,382 C 1491.8713,373.72225 1494.0452,369.24679 1500.5157,354.5 C 1503.8845,346.82218 1513.123,317.21047 1514.9563,308.21435 C 1516.5586,300.35177 1517,294.37354 1517,280.53447 C 1517,248.49396 1513.6664,237.89399 1497.4912,218.50139 C 1488.3068,207.4901 1480.1008,200.73497 1469.5,195.45925 C 1454.8786,188.18259 1447.9142,184.85756 1426.7739,185.31164 C 1411.7355,185.63612 1411.9859,186.16015 1400.8565,188.76186 C 1392.6094,190.68977 1383.3095,195.36557 1376,200.3097 C 1369.8399,204.47641 1335,231.17677 1335,231.73101 C 1335,231.97658 1337.9623,235.40007 1341.583,239.33875 C 1366.8585,266.83469 1383.1829,298.12298 1389.6671,331.5 C 1392.162,344.34233 1392.1429,371.06354 1389.6292,384.5 C 1384.6169,411.29253 1371.9806,436.32327 1353.738,455.59533 C 1336.5574,473.74541 1320.1277,482.91989 1295.5,488.1159 C 1283.3916,490.67055 1259.489,491.67172 1249.3232,490.05002 C 1225.7874,486.29549 1197.1308,472.16623 1198.1701,464.82885 C 1198.7082,461.03031 1202.3651,461.38695 1209.9656,465.97919 C 1235.1981,481.22493 1260.1665,483.1051 1284.5,471.59179 C 1326.9305,451.51596 1356.6255,389.43267 1353.6595,327 C 1352.2722,297.79726 1344.8245,274.45004 1329.1808,250.26292 C 1326.6064,246.28252 1323.7852,243.02002 1322.9116,243.01292 C 1318.655,242.9783 1287.4209,278.82018 1272.3793,301 C 1241.2951,346.83564 1216.3211,396.95273 1178.6964,489 C 1138.6153,587.05696 1114.4733,631.36305 1081.2074,667.91493 C 1054.4181,697.35042 1008.6166,730.12488 965.96732,750.37798 C 939.39317,762.99741 909.55025,772.98627 886,777.14422 C 875.12188,779.06482 846.18837,780.5009 840,779.42738 z M 2441.7683,682.95527 C 2398.9254,678.49051 2358.5003,659.35672 2307.8609,619.57497 C 2301.6124,614.6662 2285.025,601.12561 2271,589.48477 C 2221.4956,548.39578 2200.9256,532.84533 2175.3436,517.17054 C 2117.0234,481.43616 2057.0625,466.74466 1975.784,468.27478 C 1931.6018,469.10654 1898.0855,474.07574 1852.39,486.56948 C 1800.0878,500.86959 1735.1963,528.53168 1677.25,561.22854 L 1672,564.19092 L 1672,557.33818 L 1672,550.48544 L 1676.25,547.88483 C 1678.5875,546.4545 1690.175,539.08291 1702,531.50352 C 1728.0563,514.80242 1771.5359,488.58563 1794,476.03057 C 1818.2782,462.4616 1867.8023,438.29444 1889,429.67167 C 1957.5827,401.77373 2017.6747,390.62806 2068,396.47136 C 2093.2923,399.40807 2090.5399,398.52142 2094.1245,404.88715 C 2101.5603,418.09235 2109.319,425.96761 2119.4727,430.61614 C 2130.3624,435.60162 2141.5777,434.64017 2156.6719,427.4272 C 2160.6164,425.54224 2164.1864,424 2164.6052,424 C 2165.9142,424 2188.7472,433.93363 2206.5,442.22654 C 2226.148,451.40474 2265.7109,471.95955 2298,489.76512 C 2371.0392,530.04194 2409.0792,546.84954 2443.7522,554.16419 C 2459.692,557.52685 2481.5204,557.4742 2492,554.04783 C 2534.633,540.1087 2600.5575,482.86898 2696.4866,376.5 C 2701.9428,370.45 2706.7175,365.36595 2707.0972,365.2021 C 2708.4799,364.60531 2710.4945,398.68497 2711.6164,441.65142 L 2712.2992,467.80283 L 2697.4916,485.97656 C 2661.3106,530.38244 2632.539,562.37127 2599.8562,594.52933 C 2559.6435,634.09637 2528.0411,658.44471 2498.5,672.61999 C 2478.2267,682.34815 2462.8402,685.15122 2441.7683,682.95527 z M 2782.9808,365.33333 C 2782.9475,356.93379 2781.1134,325.28413 2779.4089,303.69566 C 2777.9465,285.17332 2777.9316,282.76018 2779.2731,281.69566 C 2780.1018,281.03805 2791.9399,267.675 2805.5799,252 C 2860.4308,188.96601 2888.3948,161 2896.5733,161 C 2900.1718,161 2901.3384,163.39167 2900.5689,169.19195 C 2898.1903,187.12292 2870.4984,239.55683 2830.6591,301.56429 C 2812.833,329.30966 2785.6104,369.29652 2784.236,369.75468 C 2783.3699,370.04335 2782.9943,368.72 2782.9808,365.33333 z"
       id="path2556"
       sodipodi:nodetypes="csssssssssssssssssssssccssssssssssssssssssssssssssssssssssssssccsssssssssssssssccssssssssssssssscccsssssssssssssssssssssssssssssssssccssssscccccsssssssssssssscccssccsssssssc" />
  </g>
</svg>
